<?xml version="1.0" encoding="UTF-8"?>
<svg id="_图层_2" data-name="图层 2" xmlns="http://www.w3.org/2000/svg" viewBox="0 0 290.71 100">
  <g id="_图层_1-2" data-name="图层 1" fill='#fff'>
    <path d="m24.11,53.17h-6.44v-12.28h6.44c4.87,0,7.19,2.32,7.19,6.14s-2.32,6.14-7.19,6.14m49.78-12.35c6.98,0,12.64,5.66,12.64,12.64s-5.66,12.64-12.64,12.64-12.64-5.66-12.64-12.64,5.66-12.64,12.64-12.64Zm176.36-13.56v18h-16.32v-18h-16.14v52.41h16.14v-19.88h16.32v19.88h16.15V27.26h-16.15Zm22.79,52.41h17.67V27.26h-17.67v52.41ZM25.23,27.26H0v53.55h17.67v-14.02h7.56c10.03,0,17.55-3.61,21.28-9.8,1.74,13.57,13.33,24.07,27.38,24.07,11.77,0,21.83-7.38,25.79-17.76.64-1.67.79-2.53,1.07-4.22h7.02l12.95,40.91,19.09-58.12h1.96l14.62,39.28v.15s7.5-22.22,7.5-22.22h5.83v20.58h42.29v-13.33h-24.92v-7.26h23.78v-13.77h-23.78v-4.73h24.92v-13.33h-42.29v17.71h0c-4.17.01-8.38.02-12.49.02l-2.17,6.61L136.12,0l-17.86,54.54-2.74-9.54-15.42-.02c-.13-.42-.22-.79-.38-1.23-3.93-10.45-14.02-17.88-25.84-17.88s-21,6.78-25.28,16.5c-2.11-9.38-10.76-15.09-23.38-15.09Z"/>
  </g>
</svg>